PathFileType	4	(X/Y/Z)	C:/Users/opensim2020/Desktop/walking_exp_matlab/subject03_walking08_straight_01.trc																																																																																																																																																							
DataRate	CameraRate	NumFrames	NumMarkers	Units	OrigDataRate	OrigDataStartFrame	OrigNumFrames																																																																																																																																																			
100	100	5	51	mm	100	821	451																																																																																																																																																			
Frame#	Time	LFHD			RFHD			LBHD			RBHD			C7			T10			CLAV			STRN			RBAK			LSHO			LUPA			LELB			LFRM			LWRA			LWRB			LFIN			RSHO			RUPA			RELB			RFRM			RWRA			RWRB			RFIN			LASI			RASI			LPSI			RPSI			LTHI			LKNE			LTIB			LANK			LHEE			LTOE			RTHI			RKNE			RTIB			RANK			RHEE			RTOE			*39			*40			*41			*42			*43			*44			*45			*46			*47			*48			*49			*50		
		X1	Y1	Z1	X2	Y2	Z2	X3	Y3	Z3	X4	Y4	Z4	X5	Y5	Z5	X6	Y6	Z6	X7	Y7	Z7	X8	Y8	Z8	X9	Y9	Z9	X10	Y10	Z10	X11	Y11	Z11	X12	Y12	Z12	X13	Y13	Z13	X14	Y14	Z14	X15	Y15	Z15	X16	Y16	Z16	X17	Y17	Z17	X18	Y18	Z18	X19	Y19	Z19	X20	Y20	Z20	X21	Y21	Z21	X22	Y22	Z22	X23	Y23	Z23	X24	Y24	Z24	X25	Y25	Z25	X26	Y26	Z26	X27	Y27	Z27	X28	Y28	Z28	X29	Y29	Z29	X30	Y30	Z30	X31	Y31	Z31	X32	Y32	Z32	X33	Y33	Z33	X34	Y34	Z34	X35	Y35	Z35	X36	Y36	Z36	X37	Y37	Z37	X38	Y38	Z38	X39	Y39	Z39	X40	Y40	Z40	X41	Y41	Z41	X42	Y42	Z42	X43	Y43	Z43	X44	Y44	Z44	X45	Y45	Z45	X46	Y46	Z46	X47	Y47	Z47	X48	Y48	Z48	X49	Y49	Z49	X50	Y50	Z50	X51	Y51	Z51
																																																																																																																																																										
339	3.38	685.75085	1610.96973	-1057.26611	678.59912	1619.64221	-924.98755	555.00317	1576.8512	-1058.27478	553.47375	1584.93384	-927.70154	513.70776	1416.67554	-986.72321	476.18738	1102.88989	-981.2478	633.24335	1337.81226	-996.61169	675.19611	1173.13892	-1003.29083	470.13943	1242.1106	-881.17725	572.24316	1374.10632	-1147.93872	546.00439	1177.40552	-1219.82874	549.64178	1054.67468	-1234.11243	582.94336	928.78284	-1233.8595	611.82806	813.95691	-1202.94592	585.18768	815.95795	-1252.2605	609.00012	735.27454	-1242.78394	606.97571	1363.10938	-834.21399	646.73846	1148.08362	-753.82806	683.96069	1042.72522	-737.86005	730.4303	913.93591	-734.29089	776.37677	825.61517	-770.71765	752.11157	817.03784	-723.32788	789.63135	753.78156	-730.10217	635.27087	940.31641	-1109.45081	649.20514	936.06146	-872.62054	475.69119	958.10822	-1053.72156	486.85049	970.4726	-903.8623	652.30072	645.74243	-1161.28516	714.00836	477.63763	-1131.50256	662.21851	286.83957	-1131.89111	641.82782	77.80219	-1094.02588	601.82104	42.10542	-1053.19263	785.15881	40.27815	-1083.37146	572.20813	643.41864	-838.20898	562.422	464.16995	-875.8067	496.37579	283.93738	-873.3548	446.52518	73.15037	-925.58032	399.12842	44.02233	-975.12421	586.50134	31.18703	-944.74597	605.43701	1679.04333	-1011.54675	NaN	NaN	NaN	NaN	NaN	NaN	NaN	NaN	NaN	NaN	NaN	NaN	NaN	NaN	NaN	NaN	NaN	NaN	NaN	NaN	NaN	NaN	NaN	NaN	NaN	NaN	NaN	NaN	NaN	NaN	NaN	NaN	NaN
340	3.39	693.10425	1610.03015	-1058.07373	686.12445	1619.02759	-925.82007	562.3302	1575.94958	-1058.82166	560.97119	1584.29846	-928.2691	520.90247	1416.0752	-986.7984	483.12949	1102.28296	-981.82562	640.49756	1337.01831	-996.8985	682.23633	1172.2782	-1003.45233	477.51157	1241.74536	-881.24927	579.20007	1373.22119	-1148.23364	551.67377	1176.42712	-1219.59546	554.73462	1053.61938	-1233.64148	587.48633	927.54187	-1233.29163	615.75317	812.66199	-1202.16321	588.91425	814.69867	-1251.35193	612.54767	734.01154	-1241.91711	614.46631	1362.52759	-834.56274	655.3783	1147.91284	-753.9165	693.18127	1042.81494	-738.06024	741.19116	914.5907	-735.15491	787.99481	827.04108	-772.34839	764.25873	817.9469	-724.80933	802.78375	755.44318	-732.15796	642.43469	939.30011	-1109.64734	655.66431	935.41229	-872.74829	482.72522	957.3418	-1054.51758	493.28326	970.01416	-904.54608	658.55231	644.53271	-1160.91541	722.13385	477.30859	-1129.90894	677.74304	285.35907	-1131.90625	665.98419	75.33656	-1095.54395	626.56012	38.87387	-1055.23022	810.36572	40.44731	-1083.01563	576.77405	643.12317	-838.24005	565.87299	463.87399	-875.54272	498.23553	284.07108	-873.30548	446.84976	73.73785	-925.37854	399.41458	44.7579	-975.10022	586.54657	31.14732	-944.6759	613.30682	1679.04016	-1013.10748	NaN	NaN	NaN	NaN	NaN	NaN	NaN	NaN	NaN	NaN	NaN	NaN	NaN	NaN	NaN	NaN	NaN	NaN	NaN	NaN	NaN	NaN	NaN	NaN	NaN	NaN	NaN	NaN	NaN	NaN	NaN	NaN	NaN
341	3.4	700.51929	1609.10339	-1058.90686	693.64008	1618.38892	-926.64508	569.72937	1575.01306	-1059.41162	568.56079	1583.67664	-928.84186	528.28998	1415.40027	-987.00891	490.16745	1101.59729	-982.48676	647.75861	1336.15686	-997.23901	689.20294	1171.36084	-1003.6972	484.64493	1241.13245	-881.51788	586.34668	1372.37109	-1148.61475	557.59814	1175.45667	-1219.35608	559.90509	1052.59167	-1233.31726	591.98822	926.27008	-1232.55249	619.74786	811.31067	-1201.36206	592.55927	813.23639	-1250.2301	615.92688	732.63977	-1240.9801	621.88104	1361.83533	-834.92303	663.79028	1147.66052	-753.93243	702.29022	1042.81653	-738.33923	751.78296	915.18085	-736.15784	799.3595	828.38654	-774.06171	776.15845	818.75403	-726.36829	815.59418	756.85577	-734.23444	649.57007	938.33899	-1109.87402	662.1792	934.77264	-872.92651	489.76355	956.59454	-1055.23328	499.86069	969.5495	-905.26093	664.69672	643.28943	-1160.60034	729.80707	476.883	-1128.64026	692.84576	284.12961	-1131.90186	689.68268	73.44581	-1096.81274	650.79791	36.54808	-1057.02246	835.01813	40.47339	-1082.78784	581.39813	642.76617	-838.25507	569.27338	463.58246	-875.54352	500.18085	284.29169	-873.21411	447.06805	74.21583	-925.32568	399.37875	45.68399	-974.98584	586.58588	31.10795	-944.59741	620.22742	1677.15381	-1013.11835	NaN	NaN	NaN	NaN	NaN	NaN	NaN	NaN	NaN	NaN	NaN	NaN	NaN	NaN	NaN	NaN	NaN	NaN	NaN	NaN	NaN	NaN	NaN	NaN	NaN	NaN	NaN	NaN	NaN	NaN	NaN	NaN	NaN
342	3.41	707.97357	1608.17639	-1059.75037	701.30371	1617.71765	-927.49463	577.15765	1574.09326	-1060.01807	576.11267	1583.08618	-929.4881	535.86768	1414.69983	-987.57788	497.18262	1100.96704	-983.15338	655.14685	1335.35364	-997.61798	696.3703	1170.45654	-1003.99097	491.88815	1240.64917	-881.82928	593.64636	1371.54419	-1149.04749	563.8858	1174.49207	-1219.23877	565.42798	1051.54724	-1232.73816	596.67633	925.00049	-1231.92468	623.88623	809.87329	-1200.3114	596.44574	811.94604	-1249.23352	619.35358	731.25519	-1240.00171	629.45581	1361.13232	-835.36169	672.23553	1147.27783	-754.4173	711.28784	1042.72546	-738.78864	762.13953	915.65173	-737.24585	810.52313	829.65704	-775.79004	787.7334	819.47504	-728.0011	828.04602	758.28107	-736.50397	656.8833	937.36682	-1110.16638	668.68317	934.04767	-872.98267	496.87265	955.87469	-1056.01379	506.54523	968.97003	-905.96014	670.87201	642.02808	-1160.42773	737.20721	476.35999	-1127.33093	707.43073	283.05331	-1131.81116	712.94324	72.24217	-1097.95068	674.92169	34.92364	-1058.41797	859.03528	40.56843	-1082.54358	586.17798	642.40247	-838.3075	572.73279	463.32047	-875.58008	502.18213	284.50824	-873.21289	447.33374	74.70821	-925.35272	399.57635	46.5511	-974.95557	586.71155	31.10621	-944.44073	627.90277	1676.58691	-1014.29102	NaN	NaN	NaN	NaN	NaN	NaN	NaN	NaN	NaN	NaN	NaN	NaN	NaN	NaN	NaN	NaN	NaN	NaN	NaN	NaN	NaN	NaN	NaN	NaN	NaN	NaN	NaN	NaN	NaN	NaN	NaN	NaN	NaN
343	3.42	715.47504	1607.23853	-1060.59082	708.94543	1617.05505	-928.36731	584.67944	1573.19958	-1060.64917	583.7403	1582.40173	-930.11334	543.33423	1414.06433	-987.84711	504.32712	1100.35791	-983.88568	662.58197	1334.50269	-998.05988	703.41547	1169.50781	-1004.31818	499.18561	1240.26025	-882.23138	601.14398	1370.72766	-1149.5238	570.49603	1173.62964	-1219.21008	571.28058	1050.48987	-1232.04224	601.56799	923.72186	-1231.22705	628.13434	808.60577	-1199.72766	600.35895	810.55176	-1248.104	622.75488	729.8316	-1238.95874	636.84009	1360.41382	-835.80914	680.45648	1146.83423	-754.651	720.17188	1042.52161	-739.32855	772.30029	916.00854	-738.4599	821.44305	830.75183	-777.53632	799.01117	820.02545	-729.74213	840.10162	759.53821	-738.79297	664.22083	936.37836	-1110.41516	675.49432	933.41589	-873.32751	504.04306	955.13708	-1056.68042	513.18506	968.44293	-906.59625	677.14716	640.84851	-1160.396	744.03955	475.29691	-1125.99548	721.55371	282.06796	-1131.61084	735.33783	71.32078	-1098.94727	697.8092	34.24055	-1059.6687	882.34589	41.13752	-1082.24951	591.01288	642.09363	-838.37714	576.42688	463.05887	-875.57007	504.24545	284.78159	-873.24274	447.69452	75.47549	-925.22534	399.78464	47.5629	-975.02911	586.65771	31.01383	-944.55402	635.30798	1675.64648	-1014.80865	NaN	NaN	NaN	NaN	NaN	NaN	NaN	NaN	NaN	NaN	NaN	NaN	NaN	NaN	NaN	NaN	NaN	NaN	NaN	NaN	NaN	NaN	NaN	NaN	NaN	NaN	NaN	NaN	NaN	NaN	NaN	NaN	NaN
